# SSTK version 0.8.0
# 6
mtllib original-6.mtl
o mesh6/mesh6-geometry#mesh6-geometry
v -0.044116 0.257956 -0.741984
v -0.098308 0.257956 -0.833478
v -0.044116 0.257956 -0.924972
v -0.044116 0.285412 -0.741984
v -0.098308 0.285412 -0.833478
v 0.118462 0.257956 -0.833478
v 0.064269 0.285412 -0.741984
v -0.044116 0.285412 -0.924972
v 0.064269 0.257956 -0.741984
v 0.064269 0.257956 -0.924972
v 0.118462 0.285412 -0.833478
v 0.064269 0.285412 -0.924972
vn -0.21484193296202275 -0.7490997662554401 0.6266518044633612
vn -0.9170559639110972 -0.35528298601854896 0.1810589928747855
vn -0.4296830077117358 -0.7491000134444724 -0.5042040090492016
vn 0.4296830077117358 0.7491000134444724 0.5042040090492016
vn 0.9170559639110972 0.35528298601854896 -0.1810589928747855
vn 0.21484193296202275 0.7490997662554401 -0.6266518044633612
vn -0.4296830077117358 0.7491000134444724 0.5042040090492016
vn 0.4296830077117358 -0.7491000134444724 -0.5042040090492016
vn -0.9170559639110972 0.35528298601854896 -0.1810589928747855
vn 0.9170559639110972 -0.35528298601854896 0.1810589928747855
vn 0.6468719668077064 -0.7518279614222045 -0.12771599344663725
vn -0.6468719668077064 0.7518279614222045 0.12771599344663725
vn 0.3034681465108149 0.3527061702823474 0.88515842734397
vn -0.3034681465108149 -0.3527061702823474 -0.88515842734397
vn -0.21484193296202275 0.7490997662554401 -0.6266518044633612
vn 0.21484193296202275 -0.7490997662554401 0.6266518044633612
vn 0.6069363575657356 -0.35270620779057504 0.7121984195790029
vn -0.6069363575657356 0.35270620779057504 -0.7121984195790029
vn 0.3034681465108149 -0.3527061702823474 -0.88515842734397
vn -0.3034681465108149 0.3527061702823474 0.88515842734397
vn 0.6468720494232905 0.7518280574422972 0.12771500975787425
vn -0.6468720494232905 -0.7518280574422972 -0.12771500975787425
vn 0.6069359253065245 0.3527059565937152 -0.7121989123521777
vn -0.6069359253065245 -0.3527059565937152 0.7121989123521777
usemtl material_0_0
f 1//1 2//2 3//3
f 3//4 2//5 1//6
f 2//2 1//1 4//7
f 4//8 1//6 2//5
f 3//3 2//2 5//9
f 5//10 2//5 3//4
f 6//11 1//1 3//3
f 3//4 1//6 6//12
f 4//7 1//1 7//13
f 7//14 1//6 4//8
f 2//2 4//7 5//9
f 5//10 4//8 2//5
f 3//3 5//9 8//15
f 8//16 5//10 3//4
f 6//11 9//17 1//1
f 1//6 9//18 6//12
f 6//11 3//3 10//19
f 10//20 3//4 6//12
f 7//13 1//1 9//17
f 9//18 1//6 7//14
f 11//21 4//7 7//13
f 7//14 4//8 11//22
f 4//7 8//15 5//9
f 5//10 8//16 4//8
f 8//15 10//19 3//3
f 3//4 10//20 8//16
f 11//21 9//17 6//11
f 6//12 9//18 11//22
f 12//23 6//11 10//19
f 10//20 6//12 12//24
f 11//21 7//13 9//17
f 9//18 7//14 11//22
f 11//21 8//15 4//7
f 4//8 8//16 11//22
f 8//15 12//23 10//19
f 10//20 12//24 8//16
f 12//23 11//21 6//11
f 6//12 11//22 12//24
f 11//21 12//23 8//15
f 8//16 12//24 11//22
