# SSTK version 0.8.0
# 7
mtllib original-7.mtl
o mesh7/mesh7-geometry#mesh7-geometry
v 0.079568 0.250456 -0.748915
v 0.034520 0.250456 -0.727951
v -0.015479 0.250456 -0.727951
v 0.079568 0.267090 -0.748915
v 0.034520 0.267090 -0.727951
v 0.121868 0.250456 -0.833796
v 0.110742 0.267090 -0.786690
v -0.015479 0.267090 -0.727951
v 0.110742 0.250456 -0.786690
v 0.079568 0.250456 -0.918677
v 0.121868 0.267090 -0.833796
v -0.060527 0.250456 -0.748915
v -0.091701 0.250456 -0.880901
v 0.110742 0.250456 -0.880901
v 0.079568 0.267090 -0.918677
v -0.060527 0.267090 -0.748915
v -0.091701 0.250456 -0.786690
v 0.110742 0.267090 -0.880901
v -0.015479 0.250456 -0.939641
v -0.091701 0.267090 -0.880901
v -0.091701 0.267090 -0.786690
v -0.102827 0.250456 -0.833796
v -0.060527 0.250456 -0.918677
v 0.034520 0.250456 -0.939641
v 0.034520 0.267090 -0.939641
v -0.015479 0.267090 -0.939641
v -0.102827 0.267090 -0.833796
v -0.060527 0.267090 -0.918677
vn 0.46813306396711063 -0.7148950976854176 0.5194000709723886
vn 0.2719719080359785 -0.3223038910168255 0.9067256934016391
vn -0.06315898741399403 -0.898161821018821 0.4351049132944768
vn 0.06315898741399403 0.898161821018821 -0.4351049132944768
vn -0.2719719080359785 0.3223038910168255 -0.9067256934016391
vn -0.46813306396711063 0.7148950976854176 -0.5194000709723886
vn 0.32557391842730216 0.8063147979774494 0.49381987627319873
vn -0.32557391842730216 -0.8063147979774494 -0.49381987627319873
vn 0.13598599825013216 0.3223039958525919 0.9368179879450262
vn -0.13598599825013216 -0.3223039958525919 -0.9368179879450262
vn 0.5889333240082356 -0.806850443897769 -0.046367025509336315
vn -0.5889333240082356 0.806850443897769 0.046367025509336315
vn 0.8124844786796576 0.3229547927801605 0.4853546885783309
vn -0.8124844786796576 -0.3229547927801605 -0.4853546885783309
vn -0.14551894351144884 0.8622416652890595 0.4851428116739041
vn 0.14551894351144884 -0.8622416652890595 -0.4851428116739041
vn 0.8777022677637437 -0.3229550985250573 0.35403210800583074
vn -0.8777022677637437 0.3229550985250573 -0.35403210800583074
vn 0.2785931726601224 -0.8624545345124005 -0.42256126188538135
vn -0.2785931726601224 0.8624545345124005 0.42256126188538135
vn 0.6963981999718163 0.7155582054736415 0.05482701574366223
vn -0.6963981999718163 -0.7155582054736415 -0.05482701574366223
vn -0.5210078998904258 -0.3225819380171771 0.7902478481570516
vn 0.5210078998904258 0.3225819380171771 -0.7902478481570516
vn -0.46893802132050205 -0.8627390392248625 -0.18915200859989098
vn 0.46893802132050205 0.8627390392248625 0.18915200859989098
vn 0.8124844786796576 -0.3229547927801605 -0.4853546885783309
vn -0.8124844786796576 0.3229547927801605 0.4853546885783309
vn 0.2941261269111863 0.8983283876157571 -0.32633714080977444
vn -0.2941261269111863 -0.8983283876157571 0.32633714080977444
vn -0.6337058452503188 0.32258192122614937 0.703105828302984
vn 0.6337058452503188 -0.32258192122614937 -0.703105828302984
vn -0.5998851492943355 -0.7153461780292987 0.35835408918413064
vn 0.5998851492943355 0.7153461780292987 -0.35835408918413064
vn 0.8777025512219508 0.32295420282434584 -0.3540322223422183
vn -0.8777025512219508 -0.32295420282434584 0.3540322223422183
vn -0.20099095044337587 -0.7145588238173262 -0.6700808347838847
vn 0.20099095044337587 0.7145588238173262 0.6700808347838847
vn -0.4340928283499625 0.8627396588533947 -0.25931389746147043
vn 0.4340928283499625 -0.8627396588533947 0.25931389746147043
vn -0.6480374288969099 0.7153464734447089 0.2613941730010462
vn 0.6480374288969099 -0.7153464734447089 -0.2613941730010462
vn -0.943434851354775 -0.3231309490882995 0.07427698829710426
vn 0.943434851354775 0.3231309490882995 -0.07427698829710426
vn -0.6337058452503188 -0.32258192122614937 -0.703105828302984
vn 0.6337058452503188 0.32258192122614937 0.703105828302984
vn 0.13598599825013216 -0.3223039958525919 -0.9368179879450262
vn -0.13598599825013216 0.3223039958525919 0.9368179879450262
vn 0.2719719956934594 0.32230299489649344 -0.9067259856424473
vn -0.2719719956934594 -0.32230299489649344 0.9067259856424473
vn -0.10049503201827503 0.7145582276622179 -0.6923202205770651
vn 0.10049503201827503 -0.7145582276622179 0.6923202205770651
vn -0.943434851354775 0.3231309490882995 -0.07427698829710426
vn 0.943434851354775 -0.3231309490882995 0.07427698829710426
vn -0.5210078998904258 0.3225819380171771 -0.7902478481570516
vn 0.5210078998904258 -0.3225819380171771 0.7902478481570516
usemtl material_0_0
f 1//1 2//2 3//3
f 3//4 2//5 1//6
f 4//7 2//2 1//1
f 1//6 2//5 4//8
f 5//9 3//3 2//2
f 2//5 3//4 5//10
f 6//11 1//1 3//3
f 3//4 1//6 6//12
f 5//9 2//2 4//7
f 4//8 2//5 5//10
f 7//13 4//7 1//1
f 1//6 4//8 7//14
f 8//15 3//3 5//9
f 5//10 3//4 8//16
f 6//11 9//17 1//1
f 1//6 9//18 6//12
f 6//11 3//3 10//19
f 10//20 3//4 6//12
f 4//7 8//15 5//9
f 5//10 8//16 4//8
f 11//21 4//7 7//13
f 7//14 4//8 11//22
f 7//13 1//1 9//17
f 9//18 1//6 7//14
f 8//15 12//23 3//3
f 3//4 12//24 8//16
f 11//21 9//17 6//11
f 6//12 9//18 11//22
f 10//19 3//3 13//25
f 13//26 3//4 10//20
f 6//11 10//19 14//27
f 14//28 10//20 6//12
f 4//7 15//29 8//15
f 8//16 15//30 4//8
f 11//21 15//29 4//7
f 4//8 15//30 11//22
f 11//21 7//13 9//17
f 9//18 7//14 11//22
f 16//31 12//23 8//15
f 8//16 12//24 16//32
f 3//3 12//23 17//33
f 17//34 12//24 3//4
f 18//35 11//21 6//11
f 6//12 11//22 18//36
f 3//3 17//33 13//25
f 13//26 17//34 3//4
f 10//19 13//25 19//37
f 19//38 13//26 10//20
f 15//29 14//27 10//19
f 10//20 14//28 15//30
f 18//35 6//11 14//27
f 14//28 6//12 18//36
f 15//29 20//39 8//15
f 8//16 20//40 15//30
f 11//21 18//35 15//29
f 15//30 18//36 11//22
f 17//33 12//23 16//31
f 16//32 12//24 17//34
f 8//15 21//41 16//31
f 16//32 21//42 8//16
f 13//25 17//33 22//43
f 22//44 17//34 13//26
f 19//37 13//25 23//45
f 23//46 13//26 19//38
f 10//19 19//37 24//47
f 24//48 19//38 10//20
f 15//29 18//35 14//27
f 14//28 18//36 15//30
f 15//29 10//19 25//49
f 25//50 10//20 15//30
f 15//29 26//51 20//39
f 20//40 26//52 15//30
f 8//15 20//39 21//41
f 21//42 20//40 8//16
f 17//33 16//31 21//41
f 21//42 16//32 17//34
f 22//43 17//33 21//41
f 21//42 17//34 22//44
f 13//25 22//43 27//53
f 27//54 22//44 13//26
f 23//45 13//25 20//39
f 20//40 13//26 23//46
f 28//55 19//37 23//45
f 23//46 19//38 28//56
f 26//51 24//47 19//37
f 19//38 24//48 26//52
f 25//49 10//19 24//47
f 24//48 10//20 25//50
f 15//29 25//49 26//51
f 26//52 25//50 15//30
f 26//51 28//55 20//39
f 20//40 28//56 26//52
f 20//39 27//53 21//41
f 21//42 27//54 20//40
f 22//43 21//41 27//53
f 27//54 21//42 22//44
f 13//25 27//53 20//39
f 20//40 27//54 13//26
f 23//45 20//39 28//55
f 28//56 20//40 23//46
f 26//51 19//37 28//55
f 28//56 19//38 26//52
f 26//51 25//49 24//47
f 24//48 25//50 26//52
