# SSTK version 0.8.0
# 3
mtllib original-3.mtl
o mesh3/mesh3-geometry#mesh3-geometry
v -0.157243 0.251487 -0.297725
v -0.192613 0.251487 -0.297725
v -0.157243 0.251487 -0.333890
v -0.157243 0.288279 -0.303158
v -0.192613 0.251487 -0.333890
v -0.157243 0.288279 -0.333890
v -0.192613 0.288279 -0.303158
v -0.157243 0.251487 -0.370055
v -0.157243 0.288279 -0.364621
v -0.192613 0.306582 -0.307276
v -0.157243 0.306582 -0.307276
v -0.192613 0.288279 -0.333890
v -0.192613 0.251487 -0.370055
v -0.157243 0.306582 -0.360504
v -0.157243 0.319981 -0.318524
v -0.192613 0.288279 -0.364621
v -0.157243 0.319981 -0.349255
v -0.192613 0.319981 -0.318524
v -0.157243 0.324885 -0.333890
v -0.192613 0.306582 -0.360504
v -0.192613 0.319981 -0.349255
v -0.192613 0.324885 -0.333890
vn 0.8371349417952652 -0.3574159751494044 0.4140759712099198
vn -0.35734293104050385 -0.610271882230659 0.7070178635607662
vn 0.7071067811865476 -0.7071067811865476 0
vn -0.7071067811865476 0.7071067811865476 0
vn 0.35734293104050385 0.610271882230659 -0.7070178635607662
vn -0.8371349417952652 0.3574159751494044 -0.4140759712099198
vn 0.4474629184496668 0.16357397018856468 0.8792158397624882
vn -0.4474629184496668 -0.16357397018856468 -0.8792158397624882
vn -0.7071067811865476 -0.7071067811865476 0
vn 0.7071067811865476 0.7071067811865476 0
vn 1 0 0
vn -1 0 0
vn -0.8322284578278871 0.10140993393444105 0.5450796448968069
vn 0.8322284578278871 -0.10140993393444105 -0.5450796448968069
vn 0.35734293104050385 -0.6102718822306588 -0.7070178635607665
vn -0.35734293104050385 0.6102718822306588 0.7070178635607665
vn 0.8322289114583384 0.10140998921089052 -0.5450789420085093
vn -0.8322289114583384 -0.10140998921089052 0.5450789420085093
vn -0.5644838752115392 0.3053589324953768 0.7668858304672523
vn 0.5644838752115392 -0.3053589324953768 -0.7668858304672523
vn 0.5644837690660682 0.4248938261732093 0.7076887104800079
vn -0.5644837690660682 -0.4248938261732093 -0.7076887104800079
vn -0.8371352410003878 -0.3574151028951764 -0.414076119207149
vn 0.8371352410003878 0.3574151028951764 0.414076119207149
vn 0.5644838752115392 0.30535893249537716 -0.7668858304672521
vn -0.5644838752115392 -0.30535893249537716 0.7668858304672521
vn 0.5683827612858268 0.7242016958436799 0.39047783600383396
vn -0.5683827612858268 -0.7242016958436799 -0.39047783600383396
vn -0.4474628452561883 0.16357494343170514 -0.8792156959452845
vn 0.4474628452561883 -0.16357494343170514 0.8792156959452845
vn 0.5683832145959651 0.6361952401987393 -0.5217241969796163
vn -0.5683832145959651 -0.6361952401987393 0.5217241969796163
vn -0.71957455724771 0.5369506696156968 0.4403367290619949
vn 0.71957455724771 -0.5369506696156968 -0.4403367290619949
vn 0.571186169939049 0.8162142428396897 -0.08683702583571218
vn -0.571186169939049 -0.8162142428396897 0.08683702583571218
vn -0.5644837690660682 0.42489382617320964 -0.7076887104800077
vn 0.5644837690660682 -0.42489382617320964 0.7076887104800077
vn -0.7195748997254457 0.6112279148238681 -0.3295639540744422
vn 0.7195748997254457 -0.6112279148238681 0.3295639540744422
vn -0.3286131430471396 0.9391644088235214 0.09991804349488355
vn 0.3286131430471396 -0.9391644088235214 -0.09991804349488355
usemtl material_0_0
f 1//1 2//2 3//3
f 3//4 2//5 1//6
f 4//7 2//2 1//1
f 1//6 2//5 4//8
f 3//3 2//2 5//9
f 5//10 2//5 3//4
f 6//11 1//1 3//3
f 3//4 1//6 6//12
f 7//13 2//2 4//7
f 4//8 2//5 7//14
f 6//11 4//7 1//1
f 1//6 4//8 6//12
f 5//9 2//2 7//13
f 7//14 2//5 5//10
f 8//15 3//3 5//9
f 5//10 3//4 8//16
f 9//17 6//11 3//3
f 3//4 6//12 9//18
f 10//19 7//13 4//7
f 4//8 7//14 10//20
f 6//11 11//21 4//7
f 4//8 11//22 6//12
f 5//9 7//13 12//12
f 12//11 7//14 5//10
f 8//15 9//17 3//3
f 3//4 9//18 8//16
f 8//15 5//9 13//23
f 13//24 5//10 8//16
f 9//17 14//25 6//11
f 6//12 14//26 9//18
f 12//12 7//13 10//19
f 10//20 7//14 12//11
f 10//19 4//7 11//21
f 11//22 4//8 10//20
f 6//11 15//27 11//21
f 11//22 15//28 6//12
f 13//23 5//9 12//12
f 12//11 5//10 13//24
f 9//17 8//15 16//29
f 16//30 8//16 9//18
f 16//29 8//15 13//23
f 13//24 8//16 16//30
f 14//25 9//17 16//29
f 16//30 9//18 14//26
f 14//25 17//31 6//11
f 6//12 17//32 14//26
f 12//12 10//19 18//33
f 18//34 10//20 12//11
f 18//33 10//19 11//21
f 11//22 10//20 18//34
f 19//35 15//27 6//11
f 6//12 15//28 19//36
f 18//33 11//21 15//27
f 15//28 11//22 18//34
f 13//23 12//12 16//29
f 16//30 12//11 13//24
f 14//25 16//29 20//37
f 20//38 16//30 14//26
f 17//31 14//25 20//37
f 20//38 14//26 17//32
f 17//31 19//35 6//11
f 6//12 19//36 17//32
f 21//39 12//12 18//33
f 18//34 12//11 21//40
f 19//35 22//41 15//27
f 15//28 22//42 19//36
f 15//27 22//41 18//33
f 18//34 22//42 15//28
f 16//29 12//12 20//37
f 20//38 12//11 16//30
f 17//31 20//37 21//39
f 21//40 20//38 17//32
f 17//31 21//39 19//35
f 19//36 21//40 17//32
f 20//37 12//12 21//39
f 21//40 12//11 20//38
f 21//39 18//33 22//41
f 22//42 18//34 21//40
f 19//35 21//39 22//41
f 22//42 21//40 19//36
